<mxfile host="app.diagrams.net" modified="2020-08-16T11:41:10.033Z" agent="5.0 (Macintosh; Intel Mac OS X 10_15_6) AppleWebKit/537.36 (KHTML, like Gecko) Chrome/84.0.4147.125 Safari/537.36" etag="olBwccxGNWwYAqcvIsNI" version="13.6.2" type="github" pages="2">
  <diagram id="l9aSIOzTZ0zmOrlnzWf0" name="Part 1">
    <mxGraphModel dx="796" dy="890" grid="1" gridSize="10" guides="1" tooltips="1" connect="1" arrows="1" fold="1" page="1" pageScale="1" pageWidth="827" pageHeight="1169" math="0" shadow="0">
      <root>
        <mxCell id="0" />
        <mxCell id="1" parent="0" />
        <mxCell id="Vb9XeBmEa4HjjeFpXvn_-1" value="Proverbs" style="ellipse;whiteSpace=wrap;html=1;fillColor=#dae8fc;strokeColor=#6c8ebf;fontStyle=1;fontSize=15;" vertex="1" parent="1">
          <mxGeometry x="355" y="320" width="120" height="50" as="geometry" />
        </mxCell>
        <mxCell id="Vb9XeBmEa4HjjeFpXvn_-2" value="Wisdom" style="rounded=0;whiteSpace=wrap;html=1;fontSize=15;" vertex="1" parent="1">
          <mxGeometry x="55" y="350" width="120" height="40" as="geometry" />
        </mxCell>
        <mxCell id="Vb9XeBmEa4HjjeFpXvn_-3" value="Instruction" style="rounded=0;whiteSpace=wrap;html=1;fontSize=15;" vertex="1" parent="1">
          <mxGeometry x="115" y="210" width="120" height="40" as="geometry" />
        </mxCell>
        <mxCell id="Vb9XeBmEa4HjjeFpXvn_-4" value="Words of Understanding" style="rounded=0;whiteSpace=wrap;html=1;fontSize=15;" vertex="1" parent="1">
          <mxGeometry x="305" y="130" width="120" height="40" as="geometry" />
        </mxCell>
        <mxCell id="Vb9XeBmEa4HjjeFpXvn_-5" value="Justice" style="rounded=0;whiteSpace=wrap;html=1;fontSize=15;" vertex="1" parent="1">
          <mxGeometry x="505" y="150" width="120" height="40" as="geometry" />
        </mxCell>
        <mxCell id="Vb9XeBmEa4HjjeFpXvn_-6" value="Judgement" style="rounded=0;whiteSpace=wrap;html=1;fontSize=15;" vertex="1" parent="1">
          <mxGeometry x="645" y="280" width="120" height="40" as="geometry" />
        </mxCell>
        <mxCell id="Vb9XeBmEa4HjjeFpXvn_-7" value="Subtilty to the simple" style="rounded=0;whiteSpace=wrap;html=1;fontSize=15;" vertex="1" parent="1">
          <mxGeometry x="505" y="520" width="120" height="40" as="geometry" />
        </mxCell>
        <mxCell id="Vb9XeBmEa4HjjeFpXvn_-8" value="Knowledge" style="rounded=0;whiteSpace=wrap;html=1;fontSize=15;" vertex="1" parent="1">
          <mxGeometry x="285" y="530" width="120" height="40" as="geometry" />
        </mxCell>
        <mxCell id="Vb9XeBmEa4HjjeFpXvn_-9" value="Discretion" style="rounded=0;whiteSpace=wrap;html=1;fontSize=15;" vertex="1" parent="1">
          <mxGeometry x="125" y="470" width="120" height="40" as="geometry" />
        </mxCell>
        <mxCell id="Vb9XeBmEa4HjjeFpXvn_-10" value="to know" style="endArrow=classic;html=1;fontSize=15;entryX=1;entryY=0.5;entryDx=0;entryDy=0;exitX=0;exitY=0.5;exitDx=0;exitDy=0;" edge="1" parent="1" source="Vb9XeBmEa4HjjeFpXvn_-1" target="Vb9XeBmEa4HjjeFpXvn_-2">
          <mxGeometry width="50" height="50" relative="1" as="geometry">
            <mxPoint x="85" y="500" as="sourcePoint" />
            <mxPoint x="135" y="450" as="targetPoint" />
          </mxGeometry>
        </mxCell>
        <mxCell id="Vb9XeBmEa4HjjeFpXvn_-11" value="to know and receive" style="endArrow=classic;html=1;fontSize=15;entryX=1;entryY=0.5;entryDx=0;entryDy=0;exitX=0;exitY=0;exitDx=0;exitDy=0;" edge="1" parent="1" source="Vb9XeBmEa4HjjeFpXvn_-1" target="Vb9XeBmEa4HjjeFpXvn_-3">
          <mxGeometry width="50" height="50" relative="1" as="geometry">
            <mxPoint x="85" y="540" as="sourcePoint" />
            <mxPoint x="135" y="490" as="targetPoint" />
          </mxGeometry>
        </mxCell>
        <mxCell id="Vb9XeBmEa4HjjeFpXvn_-12" value="to perceive" style="endArrow=classic;html=1;fontSize=15;entryX=0.5;entryY=1;entryDx=0;entryDy=0;exitX=0.5;exitY=0;exitDx=0;exitDy=0;" edge="1" parent="1" source="Vb9XeBmEa4HjjeFpXvn_-1" target="Vb9XeBmEa4HjjeFpXvn_-4">
          <mxGeometry width="50" height="50" relative="1" as="geometry">
            <mxPoint x="435" y="270" as="sourcePoint" />
            <mxPoint x="485" y="220" as="targetPoint" />
          </mxGeometry>
        </mxCell>
        <mxCell id="Vb9XeBmEa4HjjeFpXvn_-13" value="to receive the&lt;br&gt;instuction of" style="endArrow=classic;html=1;fontSize=15;exitX=0.5;exitY=0;exitDx=0;exitDy=0;" edge="1" parent="1" source="Vb9XeBmEa4HjjeFpXvn_-1" target="Vb9XeBmEa4HjjeFpXvn_-5">
          <mxGeometry width="50" height="50" relative="1" as="geometry">
            <mxPoint x="495" y="400" as="sourcePoint" />
            <mxPoint x="545" y="350" as="targetPoint" />
          </mxGeometry>
        </mxCell>
        <mxCell id="Vb9XeBmEa4HjjeFpXvn_-15" value="to receive the&lt;br&gt;instuction of" style="endArrow=classic;html=1;fontSize=15;exitX=1;exitY=0;exitDx=0;exitDy=0;entryX=0;entryY=0.5;entryDx=0;entryDy=0;" edge="1" parent="1" source="Vb9XeBmEa4HjjeFpXvn_-1" target="Vb9XeBmEa4HjjeFpXvn_-6">
          <mxGeometry width="50" height="50" relative="1" as="geometry">
            <mxPoint x="425" y="329.9999999999998" as="sourcePoint" />
            <mxPoint x="551.9230769230767" y="219.99999999999977" as="targetPoint" />
          </mxGeometry>
        </mxCell>
        <mxCell id="Vb9XeBmEa4HjjeFpXvn_-16" value="to give" style="endArrow=classic;html=1;fontSize=15;exitX=1;exitY=1;exitDx=0;exitDy=0;entryX=0.5;entryY=0;entryDx=0;entryDy=0;" edge="1" parent="1" source="Vb9XeBmEa4HjjeFpXvn_-1" target="Vb9XeBmEa4HjjeFpXvn_-7">
          <mxGeometry width="50" height="50" relative="1" as="geometry">
            <mxPoint x="435" y="339.9999999999998" as="sourcePoint" />
            <mxPoint x="561.9230769230767" y="229.99999999999977" as="targetPoint" />
          </mxGeometry>
        </mxCell>
        <mxCell id="Vb9XeBmEa4HjjeFpXvn_-18" value="to give" style="endArrow=classic;html=1;fontSize=15;exitX=0;exitY=1;exitDx=0;exitDy=0;entryX=0.5;entryY=0;entryDx=0;entryDy=0;" edge="1" parent="1" source="Vb9XeBmEa4HjjeFpXvn_-1" target="Vb9XeBmEa4HjjeFpXvn_-8">
          <mxGeometry width="50" height="50" relative="1" as="geometry">
            <mxPoint x="468.036762851566" y="372.419642106586" as="sourcePoint" />
            <mxPoint x="625" y="469.9999999999998" as="targetPoint" />
          </mxGeometry>
        </mxCell>
        <mxCell id="Vb9XeBmEa4HjjeFpXvn_-19" value="to give" style="endArrow=classic;html=1;fontSize=15;exitX=0;exitY=1;exitDx=0;exitDy=0;entryX=0.5;entryY=0;entryDx=0;entryDy=0;" edge="1" parent="1" source="Vb9XeBmEa4HjjeFpXvn_-1" target="Vb9XeBmEa4HjjeFpXvn_-9">
          <mxGeometry width="50" height="50" relative="1" as="geometry">
            <mxPoint x="478.036762851566" y="382.419642106586" as="sourcePoint" />
            <mxPoint x="635" y="479.9999999999998" as="targetPoint" />
          </mxGeometry>
        </mxCell>
        <mxCell id="Vb9XeBmEa4HjjeFpXvn_-20" value="Equity" style="rounded=0;whiteSpace=wrap;html=1;fontSize=15;" vertex="1" parent="1">
          <mxGeometry x="635" y="410" width="120" height="40" as="geometry" />
        </mxCell>
        <mxCell id="Vb9XeBmEa4HjjeFpXvn_-21" value="to receive the&lt;br&gt;instuction of" style="endArrow=classic;html=1;fontSize=15;exitX=1;exitY=0.5;exitDx=0;exitDy=0;entryX=0;entryY=0.5;entryDx=0;entryDy=0;" edge="1" parent="1" source="Vb9XeBmEa4HjjeFpXvn_-1" target="Vb9XeBmEa4HjjeFpXvn_-20">
          <mxGeometry width="50" height="50" relative="1" as="geometry">
            <mxPoint x="468.036762851566" y="337.58035789341375" as="sourcePoint" />
            <mxPoint x="655" y="309.9999999999998" as="targetPoint" />
          </mxGeometry>
        </mxCell>
        <mxCell id="Vb9XeBmEa4HjjeFpXvn_-22" value="to take the right decisions" style="text;html=1;strokeColor=none;fillColor=none;align=center;verticalAlign=middle;whiteSpace=wrap;rounded=0;fontSize=15;" vertex="1" parent="1">
          <mxGeometry x="55" y="317" width="120" height="30" as="geometry" />
        </mxCell>
        <mxCell id="Vb9XeBmEa4HjjeFpXvn_-23" value="to correct ourselves" style="text;html=1;strokeColor=none;fillColor=none;align=center;verticalAlign=middle;whiteSpace=wrap;rounded=0;fontSize=15;" vertex="1" parent="1">
          <mxGeometry x="115" y="176" width="120" height="30" as="geometry" />
        </mxCell>
        <mxCell id="Vb9XeBmEa4HjjeFpXvn_-24" value="to apply in our life" style="text;html=1;strokeColor=none;fillColor=none;align=center;verticalAlign=middle;whiteSpace=wrap;rounded=0;fontSize=15;" vertex="1" parent="1">
          <mxGeometry x="305" y="93" width="120" height="30" as="geometry" />
        </mxCell>
        <mxCell id="Vb9XeBmEa4HjjeFpXvn_-25" value="to be righteous" style="text;html=1;strokeColor=none;fillColor=none;align=center;verticalAlign=middle;whiteSpace=wrap;rounded=0;fontSize=15;" vertex="1" parent="1">
          <mxGeometry x="505" y="120" width="120" height="30" as="geometry" />
        </mxCell>
        <mxCell id="Vb9XeBmEa4HjjeFpXvn_-26" value="to judge well" style="text;html=1;strokeColor=none;fillColor=none;align=center;verticalAlign=middle;whiteSpace=wrap;rounded=0;fontSize=15;" vertex="1" parent="1">
          <mxGeometry x="645" y="250" width="120" height="30" as="geometry" />
        </mxCell>
        <mxCell id="Vb9XeBmEa4HjjeFpXvn_-27" value="to be fair and impartial" style="text;html=1;strokeColor=none;fillColor=none;align=center;verticalAlign=middle;whiteSpace=wrap;rounded=0;fontSize=15;" vertex="1" parent="1">
          <mxGeometry x="635" y="374" width="120" height="30" as="geometry" />
        </mxCell>
        <mxCell id="Vb9XeBmEa4HjjeFpXvn_-28" value="to be clever" style="text;html=1;strokeColor=none;fillColor=none;align=center;verticalAlign=middle;whiteSpace=wrap;rounded=0;fontSize=15;" vertex="1" parent="1">
          <mxGeometry x="505" y="563" width="120" height="30" as="geometry" />
        </mxCell>
        <mxCell id="Vb9XeBmEa4HjjeFpXvn_-29" value="to live upto the purpose of life" style="text;html=1;strokeColor=none;fillColor=none;align=center;verticalAlign=middle;whiteSpace=wrap;rounded=0;fontSize=15;" vertex="1" parent="1">
          <mxGeometry x="125" y="516" width="120" height="30" as="geometry" />
        </mxCell>
        <mxCell id="Vb9XeBmEa4HjjeFpXvn_-30" value="to be skillful" style="text;html=1;strokeColor=none;fillColor=none;align=center;verticalAlign=middle;whiteSpace=wrap;rounded=0;fontSize=15;" vertex="1" parent="1">
          <mxGeometry x="285" y="580" width="120" height="30" as="geometry" />
        </mxCell>
        <mxCell id="Vb9XeBmEa4HjjeFpXvn_-31" value="&lt;b&gt;Proverb&lt;/b&gt; means, a short parable with a moral lesson or religious allegory.&amp;nbsp;&lt;span style=&quot;color: rgb(34 , 34 , 34) ; font-family: &amp;#34;arial&amp;#34; , sans-serif ; background-color: rgb(255 , 255 , 255)&quot;&gt;&lt;font style=&quot;font-size: 16px&quot;&gt;a story, poem, or picture that can be interpreted to reveal a hidden meaning.&lt;/font&gt;&lt;/span&gt;" style="rounded=0;whiteSpace=wrap;html=1;fontSize=15;align=left;" vertex="1" parent="1">
          <mxGeometry x="55" y="660" width="720" height="60" as="geometry" />
        </mxCell>
        <mxCell id="Vb9XeBmEa4HjjeFpXvn_-32" value="Are you are wise?" style="rhombus;whiteSpace=wrap;html=1;fontSize=15;" vertex="1" parent="1">
          <mxGeometry x="80" y="780" width="245" height="80" as="geometry" />
        </mxCell>
        <mxCell id="Vb9XeBmEa4HjjeFpXvn_-33" value="Increase learning" style="rounded=0;whiteSpace=wrap;html=1;fontSize=15;" vertex="1" parent="1">
          <mxGeometry x="535" y="790" width="230" height="60" as="geometry" />
        </mxCell>
        <mxCell id="Vb9XeBmEa4HjjeFpXvn_-34" value="" style="endArrow=classic;html=1;fontSize=15;entryX=0;entryY=0.5;entryDx=0;entryDy=0;exitX=1;exitY=0.5;exitDx=0;exitDy=0;" edge="1" parent="1" source="Vb9XeBmEa4HjjeFpXvn_-32" target="Vb9XeBmEa4HjjeFpXvn_-33">
          <mxGeometry width="50" height="50" relative="1" as="geometry">
            <mxPoint x="405" y="870" as="sourcePoint" />
            <mxPoint x="455" y="820" as="targetPoint" />
          </mxGeometry>
        </mxCell>
        <mxCell id="Vb9XeBmEa4HjjeFpXvn_-35" value="Are you a man of &lt;br&gt;understanding?" style="rhombus;whiteSpace=wrap;html=1;fontSize=15;" vertex="1" parent="1">
          <mxGeometry x="80" y="950" width="245" height="80" as="geometry" />
        </mxCell>
        <mxCell id="Vb9XeBmEa4HjjeFpXvn_-36" value="Attain wise counsel" style="rounded=0;whiteSpace=wrap;html=1;fontSize=15;" vertex="1" parent="1">
          <mxGeometry x="535" y="960" width="230" height="60" as="geometry" />
        </mxCell>
        <mxCell id="Vb9XeBmEa4HjjeFpXvn_-37" value="" style="endArrow=classic;html=1;fontSize=15;entryX=0;entryY=0.5;entryDx=0;entryDy=0;exitX=1;exitY=0.5;exitDx=0;exitDy=0;" edge="1" parent="1" source="Vb9XeBmEa4HjjeFpXvn_-35" target="Vb9XeBmEa4HjjeFpXvn_-36">
          <mxGeometry width="50" height="50" relative="1" as="geometry">
            <mxPoint x="405" y="1040" as="sourcePoint" />
            <mxPoint x="455" y="990" as="targetPoint" />
          </mxGeometry>
        </mxCell>
      </root>
    </mxGraphModel>
  </diagram>
  <diagram id="zVev92LC6UfB8uBZZyji" name="Part 2">
    <mxGraphModel dx="796" dy="890" grid="1" gridSize="10" guides="1" tooltips="1" connect="1" arrows="1" fold="1" page="1" pageScale="1" pageWidth="827" pageHeight="1169" math="0" shadow="0">
      <root>
        <mxCell id="oY4MeGAaLE-Bwo-GjHBD-0" />
        <mxCell id="oY4MeGAaLE-Bwo-GjHBD-1" parent="oY4MeGAaLE-Bwo-GjHBD-0" />
        <mxCell id="oY4MeGAaLE-Bwo-GjHBD-2" value="" style="shape=flexArrow;endArrow=classic;html=1;fontSize=15;shadow=0;sketch=1;" edge="1" parent="oY4MeGAaLE-Bwo-GjHBD-1">
          <mxGeometry width="50" height="50" relative="1" as="geometry">
            <mxPoint x="100" y="255" as="sourcePoint" />
            <mxPoint x="100" y="45" as="targetPoint" />
          </mxGeometry>
        </mxCell>
        <mxCell id="oY4MeGAaLE-Bwo-GjHBD-4" value="Steps to be wise" style="text;html=1;strokeColor=none;fillColor=none;align=center;verticalAlign=middle;whiteSpace=wrap;rounded=0;fontSize=15;rotation=-90;" vertex="1" parent="oY4MeGAaLE-Bwo-GjHBD-1">
          <mxGeometry x="10" y="150" width="140" height="20" as="geometry" />
        </mxCell>
        <mxCell id="oY4MeGAaLE-Bwo-GjHBD-5" value="Fear of the Lord" style="rounded=0;whiteSpace=wrap;html=1;fontSize=15;fillColor=#dae8fc;strokeColor=#6c8ebf;fontStyle=1" vertex="1" parent="oY4MeGAaLE-Bwo-GjHBD-1">
          <mxGeometry x="120" y="190" width="200" height="40" as="geometry" />
        </mxCell>
        <mxCell id="oY4MeGAaLE-Bwo-GjHBD-6" value="Knowledge" style="rounded=0;whiteSpace=wrap;html=1;fontSize=15;fillColor=#fff2cc;strokeColor=#d6b656;fontStyle=1" vertex="1" parent="oY4MeGAaLE-Bwo-GjHBD-1">
          <mxGeometry x="120" y="140" width="200" height="40" as="geometry" />
        </mxCell>
        <mxCell id="oY4MeGAaLE-Bwo-GjHBD-7" value="Wisdom" style="rounded=0;whiteSpace=wrap;html=1;fontSize=15;fillColor=#d5e8d4;strokeColor=#82b366;fontStyle=1" vertex="1" parent="oY4MeGAaLE-Bwo-GjHBD-1">
          <mxGeometry x="120" y="90" width="200" height="40" as="geometry" />
        </mxCell>
        <mxCell id="oY4MeGAaLE-Bwo-GjHBD-8" value="" style="shape=image;html=1;verticalAlign=top;verticalLabelPosition=bottom;labelBackgroundColor=#ffffff;imageAspect=0;aspect=fixed;image=https://cdn3.iconfinder.com/data/icons/google-material-design-icons/48/ic_filter_2_48px-128.png;fontSize=15;" vertex="1" parent="oY4MeGAaLE-Bwo-GjHBD-1">
          <mxGeometry x="130" y="150" width="25" height="25" as="geometry" />
        </mxCell>
        <mxCell id="oY4MeGAaLE-Bwo-GjHBD-9" value="" style="shape=image;html=1;verticalAlign=top;verticalLabelPosition=bottom;labelBackgroundColor=#ffffff;imageAspect=0;aspect=fixed;image=https://cdn3.iconfinder.com/data/icons/google-material-design-icons/48/ic_filter_3_48px-128.png;fontSize=15;" vertex="1" parent="oY4MeGAaLE-Bwo-GjHBD-1">
          <mxGeometry x="128.5" y="96" width="28" height="28" as="geometry" />
        </mxCell>
        <mxCell id="oY4MeGAaLE-Bwo-GjHBD-10" value="" style="shape=image;html=1;verticalAlign=top;verticalLabelPosition=bottom;labelBackgroundColor=#ffffff;imageAspect=0;aspect=fixed;image=https://cdn3.iconfinder.com/data/icons/google-material-design-icons/48/ic_filter_1_48px-128.png;fontSize=15;" vertex="1" parent="oY4MeGAaLE-Bwo-GjHBD-1">
          <mxGeometry x="130" y="197.5" width="25" height="25" as="geometry" />
        </mxCell>
        <mxCell id="oY4MeGAaLE-Bwo-GjHBD-11" value="Sinner" style="shape=umlActor;verticalLabelPosition=bottom;verticalAlign=top;html=1;outlineConnect=0;fontSize=15;fontStyle=1" vertex="1" parent="oY4MeGAaLE-Bwo-GjHBD-1">
          <mxGeometry x="80" y="518" width="70" height="140" as="geometry" />
        </mxCell>
        <mxCell id="oY4MeGAaLE-Bwo-GjHBD-20" value="entices&lt;br&gt;traps" style="endArrow=classic;html=1;shadow=0;fontSize=15;entryX=0.07;entryY=0.4;entryDx=0;entryDy=0;entryPerimeter=0;exitX=0.5;exitY=0.5;exitDx=0;exitDy=0;exitPerimeter=0;" edge="1" parent="oY4MeGAaLE-Bwo-GjHBD-1" source="oY4MeGAaLE-Bwo-GjHBD-11" target="oY4MeGAaLE-Bwo-GjHBD-18">
          <mxGeometry width="50" height="50" relative="1" as="geometry">
            <mxPoint x="200" y="708" as="sourcePoint" />
            <mxPoint x="250" y="658" as="targetPoint" />
          </mxGeometry>
        </mxCell>
        <mxCell id="oY4MeGAaLE-Bwo-GjHBD-21" value="" style="group" vertex="1" connectable="0" parent="oY4MeGAaLE-Bwo-GjHBD-1">
          <mxGeometry x="380" y="450" width="420" height="325" as="geometry" />
        </mxCell>
        <mxCell id="oY4MeGAaLE-Bwo-GjHBD-18" value="" style="ellipse;shape=cloud;whiteSpace=wrap;html=1;fontSize=15;fillColor=#f5f5f5;strokeColor=#666666;fontColor=#333333;" vertex="1" parent="oY4MeGAaLE-Bwo-GjHBD-21">
          <mxGeometry width="420" height="310" as="geometry" />
        </mxCell>
        <mxCell id="oY4MeGAaLE-Bwo-GjHBD-12" value="" style="shape=umlActor;verticalLabelPosition=bottom;verticalAlign=top;html=1;outlineConnect=0;fontSize=15;" vertex="1" parent="oY4MeGAaLE-Bwo-GjHBD-21">
          <mxGeometry x="220" y="65" width="30" height="60" as="geometry" />
        </mxCell>
        <mxCell id="oY4MeGAaLE-Bwo-GjHBD-13" value="" style="shape=umlActor;verticalLabelPosition=bottom;verticalAlign=top;html=1;outlineConnect=0;fontSize=15;" vertex="1" parent="oY4MeGAaLE-Bwo-GjHBD-21">
          <mxGeometry x="290" y="125" width="30" height="60" as="geometry" />
        </mxCell>
        <mxCell id="oY4MeGAaLE-Bwo-GjHBD-14" value="" style="shape=umlActor;verticalLabelPosition=bottom;verticalAlign=top;html=1;outlineConnect=0;fontSize=15;" vertex="1" parent="oY4MeGAaLE-Bwo-GjHBD-21">
          <mxGeometry x="180" y="125" width="30" height="60" as="geometry" />
        </mxCell>
        <mxCell id="oY4MeGAaLE-Bwo-GjHBD-15" value="" style="shape=umlActor;verticalLabelPosition=bottom;verticalAlign=top;html=1;outlineConnect=0;fontSize=15;" vertex="1" parent="oY4MeGAaLE-Bwo-GjHBD-21">
          <mxGeometry x="110" y="175" width="30" height="60" as="geometry" />
        </mxCell>
        <mxCell id="oY4MeGAaLE-Bwo-GjHBD-16" value="" style="shape=umlActor;verticalLabelPosition=bottom;verticalAlign=top;html=1;outlineConnect=0;fontSize=15;" vertex="1" parent="oY4MeGAaLE-Bwo-GjHBD-21">
          <mxGeometry x="230" y="205" width="30" height="60" as="geometry" />
        </mxCell>
        <mxCell id="oY4MeGAaLE-Bwo-GjHBD-17" value="" style="shape=umlActor;verticalLabelPosition=bottom;verticalAlign=top;html=1;outlineConnect=0;fontSize=15;" vertex="1" parent="oY4MeGAaLE-Bwo-GjHBD-21">
          <mxGeometry x="120" y="85" width="30" height="60" as="geometry" />
        </mxCell>
        <mxCell id="oY4MeGAaLE-Bwo-GjHBD-19" value="Believers" style="text;html=1;strokeColor=none;fillColor=none;align=center;verticalAlign=middle;whiteSpace=wrap;rounded=0;fontSize=15;fontStyle=1" vertex="1" parent="oY4MeGAaLE-Bwo-GjHBD-21">
          <mxGeometry x="160" y="305" width="150" height="20" as="geometry" />
        </mxCell>
        <mxCell id="oY4MeGAaLE-Bwo-GjHBD-23" value="&lt;ol&gt;&lt;li&gt;To kill innocents for fun. Mocking, teasing for fun is also like this only.&lt;/li&gt;&lt;li&gt;To destroy people with cunning plans.&lt;/li&gt;&lt;li&gt;Steal and gather wealth in wrong ways.&lt;/li&gt;&lt;li&gt;Form a wicked group and get involved in bad things.&amp;nbsp;&lt;/li&gt;&lt;/ol&gt;" style="text;html=1;strokeColor=none;fillColor=none;align=left;verticalAlign=top;whiteSpace=wrap;rounded=0;fontSize=15;" vertex="1" parent="oY4MeGAaLE-Bwo-GjHBD-1">
          <mxGeometry x="160" y="598" width="220" height="273" as="geometry" />
        </mxCell>
      </root>
    </mxGraphModel>
  </diagram>
</mxfile>
